<?xml version="1.0" standalone="no"?>
<!DOCTYPE svg PUBLIC "-//W3C//DTD SVG 20010904//EN"
 "http://www.w3.org/TR/2001/REC-SVG-20010904/DTD/svg10.dtd">
<svg version="1.0" xmlns="http://www.w3.org/2000/svg"
 width="1000.000000pt" height="1000.000000pt" viewBox="0 0 1000.000000 1000.000000"
 preserveAspectRatio="xMidYMid meet">
<metadata>
Created by potrace 1.14, written by Peter Selinger 2001-2017
</metadata>
<g transform="translate(0.000000,1000.000000) scale(0.100000,-0.100000)"
fill="#000000" stroke="none">
<path d="M9068 8775 c-2 -1 -39 -5 -83 -9 -86 -7 -135 -13 -175 -22 -14 -3
-36 -8 -50 -10 -291 -53 -673 -246 -960 -484 -234 -195 -492 -482 -637 -710
-270 -426 -514 -1109 -649 -1815 -35 -183 -63 -342 -68 -375 -3 -19 -7 -48
-10 -65 -3 -16 -8 -43 -10 -60 -2 -16 -9 -59 -15 -95 -5 -36 -12 -83 -15 -105
-13 -103 -26 -204 -31 -245 -9 -80 -16 -134 -20 -158 -2 -13 -7 -53 -10 -90
-4 -37 -8 -74 -10 -82 -3 -8 -7 -40 -10 -70 -3 -30 -8 -71 -10 -90 -3 -19 -16
-129 -30 -245 -14 -115 -28 -226 -30 -245 -2 -19 -6 -53 -9 -75 -3 -22 -8 -65
-12 -95 -4 -30 -8 -66 -10 -80 -2 -14 -6 -50 -9 -80 -4 -30 -8 -66 -10 -80 -2
-14 -6 -50 -10 -80 -4 -30 -8 -66 -10 -80 -2 -14 -6 -50 -10 -80 -3 -30 -8
-71 -10 -90 -3 -19 -7 -55 -10 -80 -3 -25 -8 -61 -10 -80 -3 -19 -7 -55 -10
-80 -3 -25 -7 -61 -10 -80 -2 -19 -7 -60 -10 -90 -13 -122 -11 -121 -71 -23
-112 184 -346 515 -482 682 -91 111 -477 576 -482 581 -3 3 -80 93 -171 200
-563 665 -882 1146 -1082 1630 -54 132 -118 342 -132 435 -2 11 -6 36 -9 55
-20 113 -24 246 -11 380 l7 75 -78 1 c-44 0 -126 4 -184 9 -181 15 -593 9
-712 -10 -13 -2 -45 -6 -73 -10 -201 -24 -553 -111 -670 -165 -11 -5 -45 -19
-75 -30 -78 -30 -271 -128 -365 -185 -277 -169 -570 -429 -730 -649 -16 -23
-32 -43 -35 -46 -17 -15 -124 -187 -167 -270 -83 -159 -167 -384 -189 -506 -3
-15 -7 -31 -10 -35 -2 -4 -7 -29 -10 -55 -3 -27 -7 -51 -9 -54 -2 -3 -7 -33
-10 -65 -4 -33 -9 -69 -12 -80 -13 -54 -11 -436 2 -530 22 -162 25 -175 56
-294 16 -63 29 -116 29 -118 0 -3 13 8 29 24 32 31 375 362 550 530 l114 110
-30 64 c-85 176 -135 339 -156 499 -17 135 -13 315 8 415 3 11 7 31 9 45 19
103 91 261 167 363 98 130 269 260 434 330 39 16 79 33 90 38 23 10 109 39
134 45 9 2 43 10 76 19 94 23 242 50 335 61 30 3 66 7 80 10 76 12 579 25 607
16 8 -2 11 -18 8 -40 -8 -82 -17 -158 -21 -182 -2 -14 -7 -52 -10 -85 -3 -33
-7 -76 -9 -95 -2 -19 -6 -53 -9 -75 -2 -22 -8 -69 -11 -105 -3 -36 -8 -72 -10
-80 -2 -8 -7 -49 -10 -90 -4 -41 -8 -82 -10 -90 -2 -8 -6 -53 -10 -100 -4 -47
-8 -87 -10 -90 -1 -3 -6 -41 -10 -84 -4 -43 -8 -86 -10 -95 -2 -9 -6 -48 -9
-86 -4 -39 -9 -77 -11 -85 -2 -8 -6 -51 -10 -95 -3 -44 -8 -87 -10 -95 -2 -8
-6 -46 -10 -85 -3 -38 -8 -83 -10 -100 -5 -36 -42 -366 -50 -445 -3 -30 -7
-71 -10 -90 -2 -19 -7 -60 -10 -90 -8 -77 -13 -117 -20 -178 -4 -29 -8 -69
-10 -90 -6 -64 -22 -212 -40 -359 -2 -21 -7 -65 -10 -98 -16 -173 -23 -244
-29 -283 -2 -15 -8 -52 -11 -82 -4 -30 -9 -62 -10 -70 -1 -8 -6 -35 -9 -60 -6
-37 -21 -115 -50 -265 -13 -63 -51 -198 -76 -267 -55 -150 -145 -286 -274
-412 -78 -77 -204 -178 -214 -172 -4 2 -47 7 -97 10 -49 4 -106 9 -125 11
-114 11 -179 17 -206 19 -26 2 -43 -9 -112 -73 -181 -171 -462 -445 -462 -451
0 -3 12 -6 28 -7 37 0 312 -13 392 -18 36 -3 117 -7 180 -10 63 -2 151 -7 195
-10 44 -2 134 -7 200 -10 113 -5 157 -7 395 -20 52 -3 149 -8 215 -11 66 -3
147 -7 180 -9 l60 -3 120 118 c66 65 181 177 255 249 117 113 132 131 110 132
-14 1 -34 3 -45 4 -22 2 -178 16 -235 20 -44 4 -154 14 -200 20 -19 2 -71 7
-115 10 -44 4 -96 8 -115 10 -19 2 -71 6 -115 10 -44 4 -81 8 -82 9 -2 2 48
43 109 92 218 172 410 378 490 524 32 59 76 168 100 250 25 89 63 252 73 320
3 20 7 45 9 55 4 22 15 94 21 135 4 25 10 81 20 183 3 28 8 68 10 87 2 19 7
60 10 90 3 30 7 71 10 90 2 19 7 60 10 90 4 30 8 66 10 80 2 14 6 59 10 100 3
41 8 82 10 90 2 8 6 44 10 80 3 36 7 79 10 95 2 17 6 62 10 100 4 39 9 77 10
85 2 8 6 49 10 90 3 41 8 82 10 90 2 8 7 49 10 90 4 41 9 83 11 94 2 10 6 53
10 94 3 42 7 83 9 93 2 10 6 46 10 81 3 35 8 79 10 98 9 63 13 104 20 175 4
39 9 77 10 85 2 8 6 51 11 95 4 44 9 83 10 88 1 4 2 23 3 44 1 32 10 18 85
-133 236 -473 558 -943 1074 -1564 109 -131 110 -133 182 -220 25 -30 53 -64
64 -75 10 -11 105 -128 210 -260 236 -294 456 -590 536 -720 8 -13 39 -62 68
-109 159 -255 326 -698 456 -1206 l24 -95 110 225 c60 124 160 329 222 455 61
127 134 275 160 330 27 55 51 118 54 140 3 22 8 60 11 85 3 25 8 63 10 85 11
77 15 110 20 160 3 28 8 61 10 75 2 14 6 48 10 75 3 28 8 66 10 85 3 19 7 60
10 90 3 30 8 66 10 80 3 14 7 48 10 75 3 28 8 66 10 85 3 19 7 58 10 85 4 28
8 61 10 75 2 14 6 50 10 80 4 30 8 66 10 80 2 14 13 104 25 200 30 254 46 380
55 440 4 27 8 65 25 205 6 50 13 107 15 128 6 45 13 105 20 155 2 20 7 56 10
80 3 23 7 59 10 80 2 20 7 55 9 77 3 22 8 60 11 85 8 72 16 133 20 160 2 14 7
52 10 85 4 33 8 71 10 85 5 29 42 324 60 480 3 25 8 59 10 75 2 17 7 53 10 80
9 72 33 248 40 285 2 13 6 37 21 135 3 17 7 42 9 58 3 15 7 42 10 60 3 17 10
55 15 82 13 66 22 116 25 135 5 34 18 100 36 175 10 45 20 92 22 105 24 126
123 477 179 630 241 663 599 974 1133 985 195 3 366 -41 585 -152 69 -34 130
-63 137 -63 6 0 152 139 324 309 l314 310 -30 11 c-17 6 -41 15 -55 20 -37 14
-259 70 -300 75 -19 3 -45 7 -57 9 -62 13 -385 29 -395 21z"/>
</g>
</svg>
